<svg width="19" height="24" viewBox="0 0 19 24" fill="none" xmlns="http://www.w3.org/2000/svg">
<g clip-path="url(#clip0_2123_36622)">
<path d="M8.38906 23.4C5.94219 20.3906 0.5 13.0969 0.5 9C0.5 4.02938 4.52938 0 9.5 0C14.4688 0 18.5 4.02938 18.5 9C18.5 13.0969 13.0156 20.3906 10.6109 23.4C10.0344 24.1172 8.96562 24.1172 8.38906 23.4ZM9.5 12C11.1547 12 12.5 10.6547 12.5 9C12.5 7.34531 11.1547 6 9.5 6C7.84531 6 6.5 7.34531 6.5 9C6.5 10.6547 7.84531 12 9.5 12Z" fill="black"/>
</g>
<defs>
<clipPath id="clip0_2123_36622">
<rect width="18" height="24" fill="white" transform="translate(0.5)"/>
</clipPath>
</defs>
</svg>
