<svg width="16" height="24" viewBox="0 0 16 24" fill="none" xmlns="http://www.w3.org/2000/svg">
<g clip-path="url(#clip0_2123_37609)">
<path d="M15.0594 16.9408C15.6453 17.5268 15.6453 18.476 15.0594 19.0619C14.7688 19.3549 14.3844 19.5002 14 19.5002C13.6156 19.5002 13.2322 19.3537 12.9397 19.0607L8 14.1236L3.06078 19.0596C2.76781 19.3549 2.38391 19.5002 2 19.5002C1.61609 19.5002 1.23266 19.3549 0.939453 19.0596C0.353516 18.4736 0.353516 17.5244 0.939453 16.9385L5.88008 11.9978L0.939453 7.05957C0.353516 6.47363 0.353516 5.52441 0.939453 4.93848C1.52539 4.35254 2.47461 4.35254 3.06055 4.93848L8 9.88144L12.9406 4.94082C13.5266 4.35488 14.4758 4.35488 15.0617 4.94082C15.6477 5.52676 15.6477 6.47598 15.0617 7.06191L10.1211 12.0025L15.0594 16.9408Z" fill="black"/>
</g>
<defs>
<clipPath id="clip0_2123_37609">
<rect width="15" height="24" fill="white" transform="translate(0.5)"/>
</clipPath>
</defs>
</svg>
