<svg width="25" height="24" viewBox="0 0 25 24" fill="none" xmlns="http://www.w3.org/2000/svg"><path d="M24.0125 0.196276C23.6565 -0.0454117 23.1964 -0.0659429 22.82 0.146448L1.06813 12.5204C0.696126 12.736 0.47639 13.1391 0.502022 13.5657C0.527658 13.9934 0.79424 14.3701 1.18921 14.5355L8.37515 17.5533V22.8736C8.37515 23.2853 8.60001 23.663 8.96109 23.8608C9.12969 23.9532 9.3125 24.0001 9.45782 24.0001C9.6695 24.0001 9.88147 23.94 10.0667 23.8214L15.2792 20.4717L19.8992 22.4123C20.0391 22.4709 20.1871 22.5002 20.335 22.5002C20.5262 22.5002 20.7166 22.4519 20.8872 22.3552C21.1897 22.1852 21.3972 21.8836 21.4474 21.5405L24.4474 1.29048C24.5516 0.864432 24.3641 0.439416 24.0125 0.196276ZM17.8109 5.58756L9.04063 15.3797L4.16703 13.3454L17.8109 5.58756ZM10.5828 20.8126V18.4988L12.7602 19.4133L10.5828 20.8126ZM19.475 19.7766L11.1969 16.299L21.725 4.60365L19.475 19.7766Z" fill="black"/>
</g></svg>
