<svg width="25" height="24" viewBox="0 0 25 24" fill="none" xmlns="http://www.w3.org/2000/svg"><path d="M24.4812 1.72773L21.4812 21.1856C21.4109 21.6418 21.1355 22.0396 20.7326 22.266C20.5055 22.3935 20.2512 22.4581 19.9976 22.4581C19.8013 22.4581 19.6076 22.4198 19.4215 22.3422L13.6746 19.9469L11.2906 23.523C11.1077 23.8359 10.8031 23.9999 10.4749 23.9999C9.93586 23.9999 9.49993 23.564 9.49993 23.0249V18.5165C9.49993 18.183 9.61111 17.8588 9.81596 17.5959L19.9999 4.49992L6.23274 16.889L1.4229 14.8827C0.895458 14.6624 0.538013 14.1655 0.502857 13.5515C0.467701 12.9374 0.759216 12.4396 1.25567 12.156L22.2557 0.198199C22.7568 -0.0881606 23.375 -0.0618168 23.8494 0.264105C24.3238 0.590027 24.5702 1.15867 24.4812 1.72773Z" fill="black"/></svg>
